# Blender v2.77 (sub 0) OBJ File: 'mapa.alt3.blend'
# www.blender.org
mtllib Campa.mtl
o Circle.015_Circle.037
v 52.687462 0.625913 -10.790391
v 52.610546 0.657764 -10.403081
v 52.607929 0.564534 -10.371334
v 52.677345 0.495162 -11.188799
v 52.675934 0.592416 -11.173115
v 52.614368 0.742271 -10.448994
v 52.677399 0.395434 -11.188454
v 52.652061 0.921850 -10.895006
v 52.645218 0.938505 -10.814527
v 52.619259 0.814809 -10.507308
v 52.606625 0.466165 -10.354975
v 52.601906 -0.280960 -10.291972
v 52.658516 0.886324 -10.970747
v 52.625019 0.872589 -10.575784
v 52.672680 -0.351692 -11.125451
v 52.664337 0.833293 -11.038840
v 52.631432 0.913392 -10.651790
v 52.669304 0.764794 -11.096666
v 52.638252 0.935649 -10.732403
v 52.673218 0.683460 -11.142006
vt 0.1060 0.6029
vt 0.5056 0.6497
vt 0.1299 0.6552
vt 0.8815 0.6528
vt 0.9039 0.6003
vt 0.1681 0.7033
vt 0.9109 0.5458
vt 0.5081 0.8263
vt 0.5873 0.8207
vt 0.2193 0.7455
vt 0.6634 0.8046
vt 0.2814 0.7800
vt 0.0917 0.1376
vt 0.0974 0.5484
vt 0.7334 0.7785
vt 0.3521 0.8055
vt 0.9052 0.1350
vt 0.7945 0.7436
vt 0.4286 0.8212
vt 0.8445 0.7011
vn 0.9807 0.0378 0.1917
vn 0.9993 0.0196 -0.0318
vn 0.9801 0.0587 0.1898
vn 0.9997 0.0005 -0.0255
vn 0.9889 0.1379 0.0555
vn 0.9799 0.0806 0.1824
vn 0.9915 0.1274 0.0248
vn 0.9805 0.1016 0.1683
vn 0.9825 0.0095 0.1859
vn 0.9939 0.1100 -0.0007
vn 0.9817 0.1203 0.1474
vn 0.9951 -0.0453 0.0883
vn 0.9959 0.0883 -0.0190
vn 0.9837 0.1338 0.1202
vn 0.9975 0.0647 -0.0298
vn 0.9862 0.1401 0.0885
vn 0.9818 0.0183 0.1890
vn 0.9986 0.0414 -0.0337
vn 0.9998 -0.0081 -0.0206
usemtl Material.079
s off
f 3/1/1 1/2/1 2/3/1
f 5/4/2 1/2/2 4/5/2
f 2/3/3 1/2/3 6/6/3
f 4/5/4 1/2/4 7/7/4
f 9/8/5 1/2/5 8/9/5
f 6/6/6 1/2/6 10/10/6
f 8/9/7 1/2/7 13/11/7
f 10/10/8 1/2/8 14/12/8
f 12/13/9 1/2/9 11/14/9
f 13/11/10 1/2/10 16/15/10
f 14/12/11 1/2/11 17/16/11
f 15/17/12 1/2/12 12/13/12
f 16/15/13 1/2/13 18/18/13
f 17/16/14 1/2/14 19/19/14
f 18/18/15 1/2/15 20/20/15
f 19/19/16 1/2/16 9/8/16
f 11/14/17 1/2/17 3/1/17
f 20/20/18 1/2/18 5/4/18
f 7/7/19 1/2/19 15/17/19
o Circle.005_Circle.004
v 52.375427 0.626467 -10.827005
v 52.397419 0.657585 -10.421164
v 52.394802 0.564356 -10.389418
v 52.464218 0.494983 -11.206882
v 52.462807 0.592238 -11.191197
v 52.401241 0.742093 -10.467076
v 52.464272 0.395255 -11.206536
v 52.438934 0.921671 -10.913089
v 52.432091 0.938326 -10.832610
v 52.406128 0.814631 -10.525391
v 52.393497 0.465987 -10.373057
v 52.388775 -0.281139 -10.310055
v 52.445389 0.886146 -10.988831
v 52.411892 0.872411 -10.593866
v 52.459553 -0.351870 -11.143534
v 52.451210 0.833114 -11.056923
v 52.418304 0.913214 -10.669872
v 52.456173 0.764616 -11.114750
v 52.425125 0.935471 -10.750485
v 52.460091 0.683281 -11.160089
vt 0.5000 0.6376
vt 0.1770 0.6888
vt 0.1411 0.6417
vt 0.8884 0.5377
vt 0.8810 0.5907
vt 0.5758 0.8044
vt 0.5000 0.8096
vt 0.2253 0.7300
vt 0.6486 0.7889
vt 0.2842 0.7638
vt 0.1116 0.1375
vt 0.8884 0.1375
vt 0.7158 0.7638
vt 0.3514 0.7889
vt 0.7747 0.7300
vt 0.4242 0.8044
vt 0.1116 0.5377
vt 0.8230 0.6888
vt 0.1190 0.5907
vt 0.8589 0.6417
vn -0.9699 0.0523 -0.2376
vn -0.9987 0.0212 0.0472
vn -0.9812 0.1769 -0.0771
vn -0.9691 0.0828 -0.2322
vn -0.9852 0.1676 -0.0371
vn -0.9694 0.1134 -0.2176
vn -0.9950 -0.0599 -0.0794
vn -0.9887 0.1496 -0.0031
vn -0.9710 0.1413 -0.1930
vn -0.9918 0.1257 0.0226
vn -0.9737 0.1630 -0.1594
vn -0.9753 -0.0125 -0.2207
vn -0.9943 0.0987 0.0396
vn -0.9772 0.1754 -0.1194
vn -0.9739 -0.0013 -0.2272
vn -0.9963 0.0715 0.0485
vn -0.9716 0.0239 -0.2354
vn -0.9977 0.0452 0.0506
vn -0.9990 0.0099 0.0433
usemtl Material.079
s off
f 21/21/20 40/22/20 25/23/20
f 21/21/21 31/24/21 23/25/21
f 21/21/22 39/26/22 29/27/22
f 21/21/23 38/28/23 40/22/23
f 21/21/24 37/29/24 39/26/24
f 21/21/25 36/30/25 38/28/25
f 21/21/26 35/31/26 32/32/26
f 21/21/27 34/33/27 37/29/27
f 21/21/28 33/34/28 36/30/28
f 21/21/29 30/35/29 34/33/29
f 21/21/30 28/36/30 33/34/30
f 21/21/31 27/37/31 35/31/31
f 21/21/32 26/38/32 30/35/32
f 21/21/33 29/27/33 28/36/33
f 21/21/34 24/39/34 27/37/34
f 21/21/35 22/40/35 26/38/35
f 21/21/36 25/23/36 24/39/36
f 21/21/37 23/25/37 22/40/37
f 21/21/38 32/32/38 31/24/38
o Circle.006_Circle.014
v 52.397579 0.657404 -10.421133
v 52.610706 0.657404 -10.403036
v 52.608009 0.564175 -10.371297
v 52.394882 0.564175 -10.389395
v 52.464298 0.494807 -11.206859
v 52.677425 0.494807 -11.188761
v 52.676094 0.592061 -11.173070
v 52.462967 0.592061 -11.191168
v 52.401478 0.741912 -10.467039
v 52.614605 0.741912 -10.448941
v 52.464272 0.395079 -11.206522
v 52.677399 0.395079 -11.188424
v 52.439350 0.921492 -10.913035
v 52.652477 0.921492 -10.894938
v 52.645641 0.938147 -10.814458
v 52.432514 0.938147 -10.832556
v 52.406429 0.814449 -10.525348
v 52.619556 0.814449 -10.507251
v 52.393494 0.465806 -10.373042
v 52.606621 0.465806 -10.354944
v 52.601276 -0.281318 -10.292000
v 52.388149 -0.281318 -10.310098
v 52.445782 0.885967 -10.988779
v 52.658909 0.885967 -10.970681
v 52.412243 0.872230 -10.593819
v 52.625370 0.872230 -10.575722
v 52.458923 -0.352044 -11.143577
v 52.672050 -0.352044 -11.125480
v 52.451561 0.832936 -11.056875
v 52.664688 0.832936 -11.038777
v 52.418697 0.913033 -10.669821
v 52.631824 0.913033 -10.651723
v 52.456474 0.764438 -11.114707
v 52.669601 0.764438 -11.096609
v 52.425541 0.935290 -10.750432
v 52.638668 0.935290 -10.732334
v 52.460323 0.683104 -11.160052
v 52.673450 0.683104 -11.141954
v 52.388008 0.681620 -10.396719
v 52.616024 0.681620 -10.377357
v 52.613140 0.581878 -10.343401
v 52.385124 0.581878 -10.362763
v 52.459389 0.507665 -11.237329
v 52.687405 0.507665 -11.217967
v 52.685978 0.611712 -11.201180
v 52.457962 0.611712 -11.220542
v 52.392178 0.772030 -10.445831
v 52.620193 0.772030 -10.426470
v 52.459358 0.400971 -11.236968
v 52.687374 0.400971 -11.217607
v 52.432697 0.964155 -10.922981
v 52.660709 0.964155 -10.903620
v 52.653400 0.981973 -10.817518
v 52.425385 0.981973 -10.836880
v 52.397476 0.849635 -10.508214
v 52.625488 0.849635 -10.488852
v 52.383640 0.476638 -10.345268
v 52.611652 0.476638 -10.325907
v 52.605934 -0.322673 -10.258565
v 52.377922 -0.322673 -10.277927
v 52.439575 0.926148 -11.004016
v 52.667591 0.926148 -10.984653
v 52.403698 0.911452 -10.581468
v 52.631710 0.911452 -10.562105
v 52.453640 -0.398340 -11.169627
v 52.681656 -0.398340 -11.150265
v 52.445763 0.869413 -11.076868
v 52.673779 0.869413 -11.057507
v 52.410599 0.955105 -10.662778
v 52.638615 0.955105 -10.643415
v 52.451015 0.796130 -11.138740
v 52.679031 0.796130 -11.119378
v 52.417923 0.978917 -10.749021
v 52.645939 0.978917 -10.729658
v 52.455135 0.709115 -11.187253
v 52.683151 0.709115 -11.167891
vt 0.8879 0.0796
vt 0.9006 0.0713
vt 0.8714 0.0470
vt 0.8606 0.0569
vt 0.4855 0.3834
vt 0.4701 0.3964
vt 0.9403 0.3964
vt 0.9249 0.3834
vt 0.3904 0.0569
vt 0.4013 0.0470
vt 0.3657 0.0270
vt 0.3571 0.0382
vt 0.0153 0.1629
vt 0.0000 0.1604
vt 0.0000 0.3964
vt 0.0153 0.3834
vt 0.0321 0.1055
vt 0.0179 0.0990
vt 0.0045 0.1291
vt 0.0196 0.1336
vt 0.5831 0.0382
vt 0.5746 0.0270
vt 0.5390 0.0470
vt 0.5498 0.0569
vt 0.3191 0.0244
vt 0.3250 0.0122
vt 0.2809 0.0031
vt 0.2779 0.0158
vt 0.9207 0.1336
vt 0.9357 0.1291
vt 0.9224 0.0990
vt 0.9082 0.1055
vt 0.9403 0.1604
vt 0.9249 0.1629
vt 0.1922 0.0158
vt 0.1892 0.0031
vt 0.1451 0.0122
vt 0.1510 0.0244
vt 0.6623 0.0158
vt 0.6593 0.0031
vt 0.6152 0.0122
vt 0.6211 0.0244
vt 0.4506 0.1336
vt 0.4656 0.1291
vt 0.4522 0.0990
vt 0.4381 0.1055
vt 0.7893 0.0244
vt 0.7951 0.0122
vt 0.7510 0.0031
vt 0.7481 0.0158
vt 0.1130 0.0382
vt 0.1045 0.0270
vt 0.0688 0.0470
vt 0.0797 0.0569
vt 0.5022 0.1055
vt 0.4880 0.0990
vt 0.4746 0.1291
vt 0.4897 0.1336
vt 0.4177 0.0796
vt 0.4305 0.0713
vt 0.8358 0.0270
vt 0.8273 0.0382
vt 0.0524 0.0796
vt 0.0396 0.0713
vt 0.5097 0.0713
vt 0.5225 0.0796
vt 0.2794 0.0742
vt 0.2794 0.1717
vt 0.3245 0.1717
vt 0.3245 0.0742
vt 0.4545 0.2693
vt 0.4545 0.1717
vt 0.4081 0.1717
vt 0.4081 0.2693
vt 0.3916 0.7302
vt 0.3916 0.7934
vt 0.4375 0.7934
vt 0.4375 0.7302
vt 0.2376 0.0742
vt 0.2376 0.1717
vt 0.3483 0.7302
vt 0.3483 0.7934
vt 0.5734 0.7302
vt 0.5734 0.7934
vt 0.6123 0.7934
vt 0.6123 0.7302
vt 0.9701 0.6722
vt 1.0000 0.6722
vt 1.0000 0.3513
vt 0.9701 0.3513
vt 0.3094 0.7302
vt 0.3094 0.7934
vt 0.5301 0.7302
vt 0.5301 0.7934
vt 0.2745 0.2693
vt 0.2745 0.1717
vt 0.2376 0.1717
vt 0.2376 0.2693
vt 0.4842 0.7302
vt 0.4842 0.7934
vt 0.4176 0.0742
vt 0.4176 0.1717
vt 0.7603 0.1717
vt 0.7603 0.0742
vt 0.3163 0.2693
vt 0.3163 0.1717
vt 0.3712 0.0742
vt 0.3712 0.1717
vt 0.3614 0.2693
vt 0.3614 0.1717
vt 0.4701 0.3964
vt 0.4548 0.3834
vt 0.7052 0.0130
vt 0.7052 0.0000
vt 0.2351 0.0000
vt 0.2351 0.0130
vt 0.4701 0.1604
vt 0.4855 0.1629
vt 0.4548 0.1629
vt 0.4701 0.1604
vt 0.7972 0.2693
vt 0.7972 0.1717
vn -0.9622 -0.1276 -0.2406
vn -0.9812 0.1668 -0.0975
vn 0.9657 -0.1235 0.2282
vn 0.9864 -0.0208 -0.1632
vn 0.9881 -0.0743 -0.1345
vn -0.9904 -0.1235 0.0621
vn 0.9752 -0.1565 0.1562
vn -0.9513 -0.0744 -0.2992
vn -0.9448 -0.0208 -0.3271
vn 0.9853 -0.1666 0.0377
vn -0.9876 -0.1565 -0.0105
vn 0.9505 -0.0367 0.3086
vn -0.9776 -0.1665 -0.1290
vn 0.9885 -0.1461 -0.0393
vn -0.9889 -0.0368 0.1439
vn 0.9606 -0.0993 0.2597
vn -0.9677 -0.1461 -0.2055
vn 0.9888 -0.1037 -0.1070
vn -0.9906 -0.0992 0.0940
vn 0.0800 0.3244 -0.9425
vn -0.0835 0.1646 0.9828
vn -0.0029 0.9994 0.0345
vn 0.0738 0.4883 -0.8695
vn -0.0224 0.9642 0.2643
vn 0.0646 0.6465 -0.7602
vn -0.0071 -0.9964 0.0840
vn -0.0399 0.8818 0.4700
vn 0.0519 0.7900 -0.6109
vn -0.0545 0.7654 0.6413
vn 0.0358 0.9060 -0.4219
vn 0.0843 -0.0843 -0.9929
vn -0.0659 0.6279 0.7755
vn 0.0171 0.9794 -0.2012
vn 0.0846 -0.0034 -0.9964
vn -0.0743 0.4787 0.8749
vn 0.0835 0.1598 -0.9836
vn -0.0801 0.3233 0.9429
vn 0.9835 0.1669 0.0694
vn -0.9901 -0.0703 0.1216
vn 0.9890 -0.1276 -0.0748
vn -0.9729 -0.1591 -0.1680
vn 0.9554 -0.0702 0.2868
vn -0.9850 -0.1652 -0.0495
vn 0.9873 -0.1591 -0.0015
vn -0.9465 -0.0398 -0.3203
vn 0.9793 -0.1651 0.1173
vn -0.9894 -0.1425 0.0270
vn 0.9869 -0.0399 -0.1562
vn -0.9872 0.0008 0.1594
vn 0.9707 -0.1426 0.1934
vn -0.9816 -0.1686 -0.0892
vn 0.9462 0.0009 0.3236
vn -0.0843 0.0843 0.9929
vn 0.9826 -0.1685 0.0776
vn -0.9566 -0.1037 -0.2722
vn -0.9864 0.0208 0.1631
vn 0.9447 0.0208 0.3272
usemtl Material.079
s off
f 49/41/39 87/42/39 95/43/39 57/44/39
f 67/45/40 105/46/40 100/47/40 62/48/40
f 74/49/41 112/50/41 108/51/41 70/52/41
f 60/53/42 98/54/42 99/55/42 61/56/42
f 42/57/43 80/58/43 81/59/43 43/60/43
f 69/61/44 107/62/44 111/63/44 73/64/44
f 64/65/45 102/66/45 92/67/45 54/68/45
f 44/69/46 82/70/46 79/71/46 41/72/46
f 62/48/47 100/47/47 97/73/47 59/74/47
f 76/75/48 114/76/48 110/77/48 72/78/48
f 53/79/49 91/80/49 101/81/49 63/82/49
f 46/83/50 84/84/50 85/85/50 47/86/50
f 71/87/51 109/88/51 113/89/51 75/90/51
f 66/91/52 104/92/52 96/93/52 58/94/52
f 48/95/53 86/96/53 83/97/53 45/98/53
f 78/99/54 116/100/54 112/50/54 74/49/54
f 57/44/55 95/43/55 103/101/55 65/102/55
f 50/103/56 88/104/56 80/58/56 42/57/56
f 73/64/57 111/63/57 115/105/57 77/106/57
f 115/107/58 116/108/58 85/109/58 86/110/58
f 97/111/59 98/112/59 81/113/59 82/114/59
f 113/115/60 114/116/60 93/117/60 94/118/60
f 111/119/61 112/120/61 116/108/61 115/107/61
f 109/121/62 110/122/62 114/116/62 113/115/62
f 107/123/63 108/124/63 112/125/63 111/126/63
f 105/127/64 106/128/64 99/129/64 100/130/64
f 103/131/65 104/132/65 110/122/65 109/121/65
f 101/133/66 102/134/66 108/124/66 107/123/66
f 95/135/67 96/136/67 104/137/67 103/138/67
f 91/139/68 92/140/68 102/134/68 101/133/68
f 89/141/69 90/142/69 106/143/69 105/144/69
f 87/145/70 88/146/70 96/136/70 95/135/70
f 94/118/71 93/117/71 92/140/71 91/139/71
f 83/147/72 84/148/72 90/142/72 89/141/72
f 79/149/73 80/150/73 88/146/73 87/145/73
f 86/110/74 85/109/74 84/148/74 83/147/74
f 82/114/75 81/113/75 80/150/75 79/149/75
f 61/56/76 99/55/76 106/151/76 68/152/76
f 77/106/77 115/105/77 86/96/77 48/95/77
f 58/94/78 96/93/78 88/104/78 50/103/78
f 65/102/79 103/101/79 109/88/79 71/87/79
f 47/86/80 85/85/80 116/100/80 78/99/80
f 56/153/81 94/154/81 91/80/81 53/79/81
f 72/78/82 110/77/82 104/92/82 66/91/82
f 59/74/83 97/73/83 82/70/83 44/69/83
f 54/68/84 92/67/84 93/155/84 55/156/84
f 63/82/85 101/81/85 107/62/85 69/61/85
f 43/60/86 81/59/86 98/54/86 60/53/86
f 45/98/87 83/97/87 89/157/87 51/158/87
f 70/52/88 108/51/88 102/66/88 64/65/88
f 75/90/89 113/89/89 94/154/89 56/153/89
f 52/159/90 90/160/90 84/84/90 46/83/90
f 100/161/91 99/162/91 98/112/91 97/111/91
f 55/156/92 93/155/92 114/76/92 76/75/92
f 41/72/93 79/71/93 87/42/93 49/41/93
f 51/158/94 89/157/94 105/46/94 67/45/94
f 68/152/95 106/151/95 90/160/95 52/159/95
